{"title":"Thor.2011.BRRip.XviD-RLF","uid":6632930,"size":757999916,"categoryP":"video","categoryS":"movies","magnet":"?xt=urn:btih:6c028b10c8fbae032aa392575e3bc217c70349a6&amp;dn=Thor.2011.BRRip.XviD-RLF&amp;tr=udp%3A%2F%2Ftracker.openbittorrent.com%3A80&amp;tr=udp%3A%2F%2Fopen.demonii.com%3A1337&amp;tr=udp%3A%2F%2Ftracker.coppersurfer.tk%3A6969&amp;tr=udp%3A%2F%2Fexodus.desync.com%3A6969","seeders":0,"leechers":0,"uploader":"rlf-rls","files":-1,"time":1314439341,"description":"                 Thor.2011.BRRip.XviD-RLF\n                 ~~~~~~~~~~~~~~~~~~~~~~~~\n\n                                            \nGeneral:\n\n\nComplete name                    : rlf-thor.avi\nFormat                           : AVI\nFormat/Info                      : Audio Video Interleave\nFile size                        : 715 MiB\nDuration                         : 1h 54mn \nOverall bit rate                 : 871 Kbps\nLanguage                         : English\nSubs                             : Polish , English\nEncoder                          : Ralf\n\nVideo:\n\n                     \nFormat                           : MPEG-4 Visual\nFormat profile                   : Advanced Simple@L5\nFormat settings, BVOP            : 2\nFormat settings, QPel            : No\nFormat settings, GMC             : No warppoints\nFormat settings, Matrix          : H.263\nMuxing mode                      : Packed bitstream\nCodec ID                         : XVID\nDuration                         : 1h 54mn\nBit rate                         : 730 Kbps\nWidth                            : 688 pixels\nHeight                           : 288 pixels\nDisplay aspect ratio             : 2.35:1\nFrame rate                       : 23.976 fps\nColor space                      : YUV\nChroma subsampling               : 4:2:0\nBit depth                        : 8 bits\nScan type                        : Progressive\nBits/(Pixel*Frame)               : 0.154\nStream size                      : 600 MiB (84%)\n\nAudio:\n\n\nFormat                           : MPEG Audio\nFormat profile                   : Layer 3\nCodec ID/Hint                    : MP3\nDuration                         : 1h 54mn\nBit rate mode                    : Constant\nBit rate                         : 128 Kbps\nChannel(s)                       : 2 channels\nSampling rate                    : 48.0 KHz\nStream size                      : 105 MiB (15%)\nAlignment                        : Split accross interleaves\nInterleave, duration             : 24 ms (0.58 video frame)\n\n\n \n\n\nMOVIE INFO:\n\n           \nThe powerful but arrogant warrior Thor is cast out of the fantastic realm of \nAsgard and sent to live amongst  humans on Earth, where  he soon becomes one \n                       of their finest defenders.\n\n                                &lt;a href=&quot;\nhttp://www.imdb.com/title/tt0800369/&quot; rel=&quot;nofollow&quot; target=&quot;_NEW&quot;&gt;\nhttp://www.imdb.com/title/tt0800369/&lt;/a&gt; &lt;a href=&quot;\nhttp://www.filmweb.pl/film/Thor-2011-325418&quot; rel=&quot;nofollow&quot; target=&quot;_NEW&quot;&gt;\nhttp://www.filmweb.pl/film/Thor-2011-325418&lt;/a&gt;\n                                             \n\nSOURCE:\n\nFelony 720p.BluRay.x264 (THX)\n\n\nSCREENS:\n &lt;a href=&quot;\nhttp://image.bayimg.com/hajfnaadm.jpg&quot; rel=&quot;nofollow&quot; target=&quot;_NEW&quot;&gt;\nhttp://image.bayimg.com/hajfnaadm.jpg&lt;/a&gt; &lt;a href=&quot;\nhttp://image.bayimg.com/hajfoaadm.jpg&quot; rel=&quot;nofollow&quot; target=&quot;_NEW&quot;&gt;\nhttp://image.bayimg.com/hajfoaadm.jpg&lt;/a&gt; &lt;a href=&quot;\nhttp://image.bayimg.com/hajfpaadm.jpg&quot; rel=&quot;nofollow&quot; target=&quot;_NEW&quot;&gt;\nhttp://image.bayimg.com/hajfpaadm.jpg&lt;/a&gt; &lt;a href=&quot;\nhttp://image.bayimg.com/iajfaaadm.jpg&quot; rel=&quot;nofollow&quot; target=&quot;_NEW&quot;&gt;\nhttp://image.bayimg.com/iajfaaadm.jpg&lt;/a&gt;\n\n","torrent":{"xt":"urn:btih:6c028b10c8fbae032aa392575e3bc217c70349a6","amp;dn":"Thor.2011.BRRip.XviD-RLF","amp;tr":["udp%3A%2F%2Ftracker.openbittorrent.com%3A80","udp%3A%2F%2Fopen.demonii.com%3A1337","udp%3A%2F%2Ftracker.coppersurfer.tk%3A6969","udp%3A%2F%2Fexodus.desync.com%3A6969"],"infoHash":"6c028b10c8fbae032aa392575e3bc217c70349a6","infoHashBuffer":{"type":"Buffer","data":[108,2,139,16,200,251,174,3,42,163,146,87,94,59,194,23,199,3,73,166]},"announce":[],"urlList":[]}}